<svg xmlns="http://www.w3.org/2000/svg" viewBox="0 0 200 200" role="img">
<ellipse cx="100" cy="180" rx="54" ry="9" fill="#3a4159" opacity="0.07"/><path d="M78 44 Q74 28 86 32 Q86 20 96 26 Q100 14 106 28" fill="#f87171" stroke="#3a4159" stroke-width="4" stroke-linecap="round" stroke-linejoin="round"/><path d="M58 96 C58 62 116 52 138 74 C158 94 146 144 104 148 C70 150 58 122 58 96 Z" fill="#fff" stroke="#3a4159" stroke-width="4" stroke-linecap="round" stroke-linejoin="round"/><path d="M60 78 L44 84 L60 92 Z" fill="#fb923c" stroke="#3a4159" stroke-width="4" stroke-linecap="round" stroke-linejoin="round"/><circle cx="76" cy="72" r="4" fill="#3a4159"/><path d="M96 96 C112 88 132 96 128 112 C124 126 100 124 96 96 Z" fill="#b08968" stroke="#3a4159" stroke-width="4" stroke-linecap="round" stroke-linejoin="round"/><path d="M96 148 L92 168" stroke="#3a4159" stroke-width="12" stroke-linecap="round" fill="none"/><path d="M96 148 L92 168" stroke="#fb923c" stroke-width="6" stroke-linecap="round" fill="none"/><path d="M116 148 L118 168" stroke="#3a4159" stroke-width="12" stroke-linecap="round" fill="none"/><path d="M116 148 L118 168" stroke="#fb923c" stroke-width="6" stroke-linecap="round" fill="none"/>
</svg>
