<svg xmlns="http://www.w3.org/2000/svg" viewBox="0 0 200 200" role="img">
<ellipse cx="100" cy="180" rx="54" ry="9" fill="#3d3357" opacity="0.08"/><path d="M52 112 L60 88 C64 76 76 70 92 70 L114 70 C130 70 140 78 146 90 L154 112 Z" fill="#ef6461" stroke="#3d3357" stroke-width="5" stroke-linecap="round" stroke-linejoin="round"/><path d="M70 88 C74 79 82 76 92 76 L96 76 L96 108 L64 108 Z" fill="#c9e8ff" stroke="#3d3357" stroke-width="5" stroke-linecap="round" stroke-linejoin="round"/><path d="M104 76 L112 76 C124 76 132 82 136 90 L140 108 L104 108 Z" fill="#c9e8ff" stroke="#3d3357" stroke-width="5" stroke-linecap="round" stroke-linejoin="round"/><rect x="38" y="108" width="124" height="28" rx="14" fill="#ef6461" stroke="#3d3357" stroke-width="5" stroke-linecap="round" stroke-linejoin="round"/><circle cx="70" cy="140" r="16" fill="#3d3357"/><circle cx="70" cy="140" r="7" fill="#fff"/><circle cx="130" cy="140" r="16" fill="#3d3357"/><circle cx="130" cy="140" r="7" fill="#fff"/>
</svg>
