<svg xmlns="http://www.w3.org/2000/svg" viewBox="0 0 200 200" role="img">
<ellipse cx="100" cy="180" rx="54" ry="9" fill="#3d3357" opacity="0.08"/><g transform="translate(100 100) scale(0.72) translate(-100 -100)"><path d="M40 66 C30 76 28 92 34 104 M50 74 C44 82 43 92 47 100" stroke="#3d3357" stroke-width="5" fill="none" opacity="0.5" stroke-linecap="round"/><rect x="72" y="78" width="58" height="62" rx="20" fill="#f7c8a0" stroke="#3d3357" stroke-width="5" stroke-linecap="round" stroke-linejoin="round"/><rect x="76" y="40" width="15" height="46" rx="7.5" fill="#f7c8a0" stroke="#3d3357" stroke-width="5" stroke-linecap="round" stroke-linejoin="round"/><rect x="92" y="34" width="15" height="52" rx="7.5" fill="#f7c8a0" stroke="#3d3357" stroke-width="5" stroke-linecap="round" stroke-linejoin="round"/><rect x="108" y="34" width="15" height="52" rx="7.5" fill="#f7c8a0" stroke="#3d3357" stroke-width="5" stroke-linecap="round" stroke-linejoin="round"/><rect x="124" y="42" width="15" height="44" rx="7.5" fill="#f7c8a0" stroke="#3d3357" stroke-width="5" stroke-linecap="round" stroke-linejoin="round"/><rect x="122" y="92" width="34" height="17" rx="8.5" fill="#f7c8a0" stroke="#3d3357" stroke-width="5" stroke-linecap="round" stroke-linejoin="round"/><path d="M84 156 L120 156 C124 148 122 140 118 136 L86 136 C80 140 80 150 84 156 Z" fill="#4ecdc4" stroke="#3d3357" stroke-width="5" stroke-linecap="round" stroke-linejoin="round"/></g>
</svg>
